<?xml version="1.0" standalone="no"?>
<!DOCTYPE svg PUBLIC "-//W3C//DTD SVG 1.1//EN" "http://www.w3.org/Graphics/SVG/1.1/DTD/svg11.dtd">
<svg t="1562058081066" class="icon" viewBox="0 0 1141 1024" version="1.1" xmlns="http://www.w3.org/2000/svg" p-id="1562" xmlns:xlink="http://www.w3.org/1999/xlink" width="222.8515625" height="200">
    <defs>
        <style type="text/css"></style>
    </defs>
    <path d="M621.985185 94.814815H182.992593v93.866666H957.62963V94.814815z" fill="#28AAC4" p-id="1563"></path>
    <path d="M243.674074 81.540741v188.681481c0 7.585185 12.325926 7.585185 12.325926 0V81.540741c0-8.533333-12.325926-8.533333-12.325926 0zM349.866667 81.540741v188.681481c0 7.585185 12.325926 7.585185 12.325926 0V81.540741c0-8.533333-12.325926-8.533333-12.325926 0zM456.059259 81.540741v188.681481c0 7.585185 12.325926 7.585185 12.325926 0V81.540741c0-8.533333-12.325926-8.533333-12.325926 0zM562.251852 81.540741v188.681481c0 7.585185 12.325926 7.585185 12.325926 0V81.540741c0-8.533333-12.325926-8.533333-12.325926 0zM668.444444 81.540741v188.681481c0 7.585185 12.325926 7.585185 12.325926 0V81.540741c0-8.533333-12.325926-8.533333-12.325926 0zM774.637037 81.540741v188.681481c0 7.585185 12.325926 7.585185 12.325926 0V81.540741c0-8.533333-12.325926-8.533333-12.325926 0zM880.82963 81.540741v188.681481c0 7.585185 12.325926 7.585185 12.325926 0V81.540741c0-8.533333-12.325926-8.533333-12.325926 0z" fill="#3A2313" p-id="1564"></path>
    <path d="M621.985185 186.785185H172.562963L153.6 877.037037s179.2 118.518519 373.57037-3.792593l51.2-477.866666 43.614815-208.592593z" fill="#3C7485" p-id="1565"></path>
    <path d="M22.755556 423.822222c166.874074 8.533333 310.044444-143.17037 375.466666-283.496296 12.325926-27.496296-27.496296-51.2-40.77037-23.703704C298.666667 242.725926 173.511111 384.948148 22.755556 377.362963c-30.340741-0.948148-30.340741 45.511111 0 46.459259z" fill="#FFB200" p-id="1566"></path>
    <path d="M74.903704 457.007407h216.177777v38.874074H74.903704z" fill="#28AAC4" p-id="1567"></path>
    <path d="M292.02963 494.933333l-18.962963 183.940741c0 14.222222-11.377778 26.548148-26.548148 26.548148H101.451852c-14.222222 0-26.548148-11.377778-26.548148-26.548148V494.933333h217.125926z" fill="#FABE2C" p-id="1568"></path>
    <path d="M519.585185 186.785185H969.007407l18.962963 690.251852s-179.2 118.518519-373.57037-3.792593l-51.2-477.866666-43.614815-208.592593z" fill="#3C7485" p-id="1569"></path>
    <path d="M1118.814815 377.362963c-150.755556 7.585185-275.911111-134.637037-334.696296-259.792593-12.325926-27.496296-53.096296-3.792593-40.770371 23.703704 65.422222 140.325926 207.644444 292.02963 375.466667 283.496296 30.340741-1.896296 30.340741-48.355556 0-47.407407z" fill="#FFB200" p-id="1570"></path>
    <path d="M849.540741 457.007407h216.177778v38.874074H849.540741z" fill="#28AAC4" p-id="1571"></path>
    <path d="M849.540741 494.933333l18.962963 183.940741c0 14.222222 11.377778 26.548148 26.548148 26.548148h145.066667c14.222222 0 26.548148-11.377778 26.548148-26.548148V494.933333H849.540741z" fill="#FABE2C" p-id="1572"></path>
    <path d="M523.377778 456.059259a101.451852 46.459259 90 1 0 92.918518 0 101.451852 46.459259 90 1 0-92.918518 0Z" fill="#3C7485" p-id="1573"></path>
    <path d="M577.422222 157.392593C548.02963 170.666667 417.185185 292.02963 475.97037 321.422222c31.288889 16.118519 57.837037-35.081481 68.266667-55.940741 16.118519-31.288889 32.237037-68.266667 38.874074-103.348148 0.948148-4.740741-6.637037-7.585185-7.585185-1.896296-4.740741 27.496296-16.118519 54.044444-27.496296 79.644444-10.42963 23.703704-30.340741 74.903704-61.62963 76.8-43.614815 1.896296 11.377778-73.955556 18.962963-83.437037 19.911111-24.651852 46.459259-54.992593 75.851852-68.266666 4.740741-2.844444 0.948148-9.481481-3.792593-7.585185z" fill="#FFFFFF" p-id="1574"></path>
    <path d="M577.422222 164.977778c25.6 11.377778 151.703704 136.533333 97.659259 150.755555-29.392593 7.585185-54.044444-53.096296-63.525925-72.059259-11.377778-25.6-23.703704-54.992593-29.392593-83.437037-0.948148-4.740741-8.533333-2.844444-7.585185 1.896296 6.637037 34.133333 21.807407 68.266667 36.977778 99.555556 11.377778 22.755556 36.02963 73.007407 69.214814 59.733333 61.62963-23.703704-73.007407-151.703704-100.503703-164.029629-3.792593-0.948148-7.585185 5.688889-2.844445 7.585185z" fill="#FFFFFF" p-id="1575"></path>
    <path d="M577.422222 170.666667c-9.481481 41.718519-14.222222 83.437037-23.703703 125.155555-8.533333 38.874074-17.066667 78.696296-19.911112 118.518519 0 4.740741 7.585185 4.740741 7.585186 0 3.792593-41.718519 12.325926-82.488889 21.807407-123.25926 8.533333-38.874074 13.274074-78.696296 21.807407-117.57037 1.896296-5.688889-6.637037-7.585185-7.585185-2.844444z" fill="#FFFFFF" p-id="1576"></path>
    <path d="M579.318519 170.666667c5.688889 58.785185 14.222222 116.622222 17.066666 176.355555 2.844444 58.785185 5.688889 118.518519 11.377778 177.303704 0 4.740741 8.533333 4.740741 7.585185 0-5.688889-58.785185-7.585185-118.518519-11.377778-177.303704-2.844444-59.733333-11.377778-117.57037-17.066666-176.355555 0-4.740741-8.533333-4.740741-7.585185 0z" fill="#FFFFFF" p-id="1577"></path>
</svg>